<svg width="35" height="35" viewBox="0 0 35 35" fill="none" xmlns="http://www.w3.org/2000/svg">
<g clip-path="url(#clip0_1_216)">
<path d="M1.45833 6.92691H5.44833C5.76134 8.0786 6.44463 9.0953 7.39277 9.82014C8.34091 10.545 9.50122 10.9377 10.6947 10.9377C11.8882 10.9377 13.0485 10.545 13.9966 9.82014C14.9447 9.0953 15.628 8.0786 15.941 6.92691H33.5417C33.9284 6.92691 34.2994 6.77327 34.5729 6.49978C34.8464 6.22628 35 5.85535 35 5.46858C35 5.0818 34.8464 4.71087 34.5729 4.43738C34.2994 4.16389 33.9284 4.01024 33.5417 4.01024H15.941C15.628 2.85855 14.9447 1.84186 13.9966 1.11701C13.0485 0.392167 11.8882 -0.000549316 10.6947 -0.000549316C9.50122 -0.000549316 8.34091 0.392167 7.39277 1.11701C6.44463 1.84186 5.76134 2.85855 5.44833 4.01024H1.45833C1.07156 4.01024 0.700627 4.16389 0.427136 4.43738C0.153645 4.71087 0 5.0818 0 5.46858C0 5.85535 0.153645 6.22628 0.427136 6.49978C0.700627 6.77327 1.07156 6.92691 1.45833 6.92691ZM10.694 2.9165C11.1987 2.9165 11.6921 3.06617 12.1118 3.3466C12.5315 3.62702 12.8586 4.02561 13.0518 4.49194C13.2449 4.95827 13.2955 5.47141 13.197 5.96647C13.0985 6.46152 12.8555 6.91626 12.4986 7.27317C12.1416 7.63009 11.6869 7.87315 11.1918 7.97162C10.6968 8.0701 10.1837 8.01956 9.71732 7.8264C9.25099 7.63323 8.85241 7.30613 8.57198 6.88644C8.29155 6.46675 8.14188 5.97333 8.14188 5.46858C8.14265 4.79196 8.41177 4.14328 8.89022 3.66484C9.36866 3.18639 10.0173 2.91727 10.694 2.9165Z" fill="black"/>
<path d="M33.5417 16.0417H29.5517C29.2392 14.8897 28.5562 13.8727 27.6081 13.1475C26.66 12.4224 25.4996 12.0295 24.306 12.0295C23.1124 12.0295 21.952 12.4224 21.004 13.1475C20.0559 13.8727 19.3729 14.8897 19.0604 16.0417H1.45833C1.07156 16.0417 0.700627 16.1953 0.427136 16.4688C0.153645 16.7423 0 17.1133 0 17.5C0 17.8868 0.153645 18.2577 0.427136 18.5312C0.700627 18.8047 1.07156 18.9584 1.45833 18.9584H19.0604C19.3729 20.1103 20.0559 21.1274 21.004 21.8525C21.952 22.5777 23.1124 22.9706 24.306 22.9706C25.4996 22.9706 26.66 22.5777 27.6081 21.8525C28.5562 21.1274 29.2392 20.1103 29.5517 18.9584H33.5417C33.9284 18.9584 34.2994 18.8047 34.5729 18.5312C34.8464 18.2577 35 17.8868 35 17.5C35 17.1133 34.8464 16.7423 34.5729 16.4688C34.2994 16.1953 33.9284 16.0417 33.5417 16.0417ZM24.306 20.0521C23.8013 20.0521 23.3079 19.9024 22.8882 19.622C22.4685 19.3416 22.1414 18.943 21.9482 18.4767C21.7551 18.0103 21.7045 17.4972 21.803 17.0021C21.9015 16.5071 22.1445 16.0523 22.5014 15.6954C22.8584 15.3385 23.3131 15.0955 23.8082 14.997C24.3032 14.8985 24.8164 14.9491 25.2827 15.1422C25.749 15.3354 26.1476 15.6625 26.428 16.0822C26.7084 16.5019 26.8581 16.9953 26.8581 17.5C26.8574 18.1766 26.5882 18.8253 26.1098 19.3038C25.6313 19.7822 24.9827 20.0513 24.306 20.0521Z" fill="black"/>
<path d="M33.5417 28.0729H15.941C15.628 26.9212 14.9447 25.9045 13.9966 25.1797C13.0485 24.4549 11.8882 24.0621 10.6947 24.0621C9.50122 24.0621 8.34091 24.4549 7.39277 25.1797C6.44463 25.9045 5.76134 26.9212 5.44833 28.0729H1.45833C1.07156 28.0729 0.700627 28.2266 0.427136 28.5001C0.153645 28.7736 0 29.1445 0 29.5313C0 29.918 0.153645 30.289 0.427136 30.5625C0.700627 30.836 1.07156 30.9896 1.45833 30.9896H5.44833C5.76134 32.1413 6.44463 33.158 7.39277 33.8828C8.34091 34.6077 9.50122 35.0004 10.6947 35.0004C11.8882 35.0004 13.0485 34.6077 13.9966 33.8828C14.9447 33.158 15.628 32.1413 15.941 30.9896H33.5417C33.9284 30.9896 34.2994 30.836 34.5729 30.5625C34.8464 30.289 35 29.918 35 29.5313C35 29.1445 34.8464 28.7736 34.5729 28.5001C34.2994 28.2266 33.9284 28.0729 33.5417 28.0729ZM10.694 32.0833C10.1892 32.0833 9.69578 31.9337 9.2761 31.6532C8.85641 31.3728 8.5293 30.9742 8.33614 30.5079C8.14298 30.0416 8.09244 29.5284 8.19091 29.0334C8.28939 28.5383 8.53245 28.0836 8.88936 27.7267C9.24628 27.3698 9.70102 27.1267 10.1961 27.0282C10.6911 26.9297 11.2043 26.9803 11.6706 27.1734C12.1369 27.3666 12.5355 27.6937 12.8159 28.1134C13.0964 28.5331 13.246 29.0265 13.246 29.5313C13.2449 30.2078 12.9756 30.8562 12.4973 31.3346C12.0189 31.8129 11.3705 32.0822 10.694 32.0833Z" fill="black"/>
</g>
<defs>
<clipPath id="clip0_1_216">
<rect width="35" height="35" fill="white"/>
</clipPath>
</defs>
</svg>
