<svg width="30" height="30" viewBox="0 0 30 30" fill="none" xmlns="http://www.w3.org/2000/svg">
<g clip-path="url(#clip0_1_220)">
<path d="M1.4638 18.535L6.31255 23.3837C6.5483 23.6114 6.86406 23.7374 7.1918 23.7346C7.51955 23.7317 7.83306 23.6003 8.06482 23.3685C8.29658 23.1367 8.42805 22.8232 8.43089 22.4955C8.43374 22.1677 8.30775 21.852 8.08005 21.6162L3.2313 16.7675C3.08725 16.6206 2.96135 16.4569 2.8563 16.28C2.87505 16.28 2.89005 16.29 2.9088 16.29L22.5138 16.25C22.8453 16.25 23.1633 16.1183 23.3977 15.8839C23.6321 15.6494 23.7638 15.3315 23.7638 15C23.7638 14.6685 23.6321 14.3505 23.3977 14.1161C23.1633 13.8817 22.8453 13.75 22.5138 13.75L2.9163 13.79C2.8813 13.79 2.85255 13.8075 2.8188 13.81C2.92968 13.5985 3.07027 13.404 3.2363 13.2325L8.08505 8.38372C8.20444 8.26841 8.29966 8.13048 8.36518 7.97797C8.43069 7.82547 8.46517 7.66144 8.46661 7.49547C8.46806 7.32949 8.43643 7.1649 8.37358 7.01127C8.31073 6.85765 8.21791 6.71809 8.10054 6.60072C7.98318 6.48336 7.84361 6.39054 7.68999 6.32769C7.53637 6.26484 7.37177 6.23321 7.2058 6.23465C7.03983 6.2361 6.8758 6.27058 6.7233 6.33609C6.57079 6.4016 6.43286 6.49683 6.31755 6.61621L1.4688 11.465C0.531446 12.4026 0.00487137 13.6742 0.00487137 15C0.00487137 16.3258 0.531446 17.5973 1.4688 18.535H1.4638Z" fill="#4D4D4D"/>
<path d="M21.25 2.5H23.75C24.7446 2.5 25.6984 2.89509 26.4017 3.59835C27.1049 4.30161 27.5 5.25544 27.5 6.25L27.5 23.75C27.5 24.7446 27.1049 25.6984 26.4017 26.4017C25.6984 27.1049 24.7446 27.5 23.75 27.5H21.25C20.9185 27.5 20.6005 27.6317 20.3661 27.8661C20.1317 28.1005 20 28.4185 20 28.75C20 29.0815 20.1317 29.3995 20.3661 29.6339C20.6005 29.8683 20.9185 30 21.25 30H23.75C25.407 29.998 26.9956 29.3389 28.1672 28.1672C29.3389 26.9956 29.998 25.407 30 23.75L30 6.25C29.998 4.59301 29.3389 3.00445 28.1672 1.83277C26.9956 0.6611 25.407 0.00198555 23.75 0H21.25C20.9185 0 20.6005 0.131695 20.3661 0.366116C20.1317 0.600536 20 0.91848 20 1.25C20 1.58152 20.1317 1.89946 20.3661 2.13388C20.6005 2.36831 20.9185 2.5 21.25 2.5Z" fill="#4D4D4D"/>
</g>
<defs>
<clipPath id="clip0_1_220">
<rect width="30" height="30" fill="white" transform="matrix(-1 0 0 -1 30 30)"/>
</clipPath>
</defs>
</svg>
